<mxfile host="Electron" modified="2024-03-29T11:24:27.222Z" agent="Mozilla/5.0 (X11; Linux x86_64) AppleWebKit/537.36 (KHTML, like Gecko) draw.io/24.1.0 Chrome/120.0.6099.109 Electron/28.1.0 Safari/537.36" etag="EVCpLmcXSB7By1i8Uioq" version="24.1.0" type="device">
  <diagram name="第 1 页" id="ZGoeR9LIFm78qa9SrYvj">
    <mxGraphModel dx="988" dy="568" grid="1" gridSize="10" guides="1" tooltips="1" connect="1" arrows="1" fold="1" page="1" pageScale="1" pageWidth="827" pageHeight="1169" math="1" shadow="0">
      <root>
        <mxCell id="0" />
        <mxCell id="1" parent="0" />
        <mxCell id="1w3eNoOZPT37V3u_YCe4-22" value="" style="group" vertex="1" connectable="0" parent="1">
          <mxGeometry x="570" width="255" height="597" as="geometry" />
        </mxCell>
        <mxCell id="1w3eNoOZPT37V3u_YCe4-2" value="" style="rounded=0;whiteSpace=wrap;html=1;fillColor=#DAE8FC;dashed=1;strokeColor=none;fontFamily=宋体;fontSize=10.5;container=0;" vertex="1" parent="1w3eNoOZPT37V3u_YCe4-22">
          <mxGeometry width="255" height="597" as="geometry" />
        </mxCell>
        <mxCell id="1w3eNoOZPT37V3u_YCe4-3" value="" style="edgeStyle=orthogonalEdgeStyle;rounded=0;orthogonalLoop=1;jettySize=auto;html=1;entryX=0.5;entryY=0;entryDx=0;entryDy=0;fontFamily=宋体;fontSize=13;exitX=0.5;exitY=1;exitDx=0;exitDy=0;" edge="1" parent="1w3eNoOZPT37V3u_YCe4-22" source="1w3eNoOZPT37V3u_YCe4-4" target="1w3eNoOZPT37V3u_YCe4-7">
          <mxGeometry relative="1" as="geometry">
            <mxPoint x="187" y="77" as="sourcePoint" />
          </mxGeometry>
        </mxCell>
        <mxCell id="1w3eNoOZPT37V3u_YCe4-4" value="&lt;font style=&quot;font-size: 13px;&quot;&gt;&lt;b&gt;输入&lt;/b&gt;：一个 &lt;font style=&quot;font-size: 13px;&quot; face=&quot;Times New Roman&quot;&gt;Batch&lt;/font&gt; 数据`\left( \mathbf{x^{k(i)}}, \mathbf{y^{k(i)}}&lt;br style=&quot;border-color: var(--border-color); font-size: 13px;&quot;&gt;&amp;nbsp;\right)`，网络模型`\mathbf{J}`，损失函数\(\mathcal{L}\)，学习率`\eta`，训练轮数`Epochs`&lt;/font&gt;" style="rounded=1;whiteSpace=wrap;html=1;fontSize=13;fontFamily=宋体;container=0;" vertex="1" parent="1w3eNoOZPT37V3u_YCe4-22">
          <mxGeometry x="22.519999999999982" y="29" width="210" height="66" as="geometry" />
        </mxCell>
        <mxCell id="1w3eNoOZPT37V3u_YCe4-5" value="$$i&amp;lt;Epochs$$" style="rhombus;whiteSpace=wrap;html=1;fontFamily=宋体;fontSize=13;container=0;" vertex="1" parent="1w3eNoOZPT37V3u_YCe4-22">
          <mxGeometry x="77.50999999999999" y="153" width="100" height="37" as="geometry" />
        </mxCell>
        <mxCell id="1w3eNoOZPT37V3u_YCe4-6" value="&lt;b&gt;前向传播&lt;/b&gt;：`\hat{\mathbf{y}}^{k(i)} = \mathbf{J} \left(\mathbf{x}^{k(i)},\mathbf{y}^{k(i)}; \mathbf{W}^{k}\right)`" style="rounded=0;whiteSpace=wrap;html=1;fontFamily=宋体;fontSize=13;container=0;" vertex="1" parent="1w3eNoOZPT37V3u_YCe4-22">
          <mxGeometry x="51.139999999999986" y="211" width="152.76" height="41" as="geometry" />
        </mxCell>
        <mxCell id="1w3eNoOZPT37V3u_YCe4-7" value="&lt;b&gt;初始化&lt;/b&gt;：`i=0`" style="rounded=0;whiteSpace=wrap;html=1;fontFamily=宋体;fontSize=13;container=0;" vertex="1" parent="1w3eNoOZPT37V3u_YCe4-22">
          <mxGeometry x="82.50999999999999" y="115" width="90" height="18" as="geometry" />
        </mxCell>
        <mxCell id="1w3eNoOZPT37V3u_YCe4-8" value="&lt;b&gt;反向传播&lt;/b&gt;：\(\mathbf{\Delta}^{k(i)} = \mathcal{L}\left( \hat{\mathbf{Y}}^{k(i)&lt;br style=&quot;border-color: var(--border-color); font-size: 13px;&quot;&gt;}&lt;br style=&quot;font-size: 13px;&quot;&gt;, \mathbf{Y}^{k(i)}&lt;br style=&quot;font-size: 13px;&quot;&gt;&amp;nbsp;\right)\)`\mathbf{g}\left(\mathbf{w}^{k(i)&lt;br style=&quot;font-size: 13px;&quot;&gt;} \right)=\frac{1}{N}\frac{\partial \mathbf{\Delta}^{k(i)&lt;br style=&quot;font-size: 13px;&quot;&gt;}}{\partial \mathbf{w}^{k(i)}}&lt;br style=&quot;font-size: 13px;&quot;&gt;``\mathbf{g}\left(\mathbf{b}^{k(i)&lt;br style=&quot;font-size: 13px;&quot;&gt;} \right)=\frac{1}{N}&lt;br style=&quot;font-size: 13px;&quot;&gt;\frac{\partial \mathbf{\Delta^{k(i)&lt;br style=&quot;font-size: 13px;&quot;&gt;}}}{\partial \mathbf{b}^{k(i)&lt;br style=&quot;font-size: 13px;&quot;&gt;}}&lt;br style=&quot;border-color: var(--border-color); font-size: 13px;&quot;&gt;`" style="rounded=0;whiteSpace=wrap;html=1;fontFamily=宋体;fontSize=13;container=0;" vertex="1" parent="1w3eNoOZPT37V3u_YCe4-22">
          <mxGeometry x="47.25999999999999" y="274" width="160.51" height="107" as="geometry" />
        </mxCell>
        <mxCell id="1w3eNoOZPT37V3u_YCe4-9" value="&lt;b&gt;模型更新&lt;/b&gt;：根据公式&lt;font face=&quot;Times New Roman&quot;&gt;(&lt;font style=&quot;font-size: 13px;&quot;&gt;2-4&lt;/font&gt;)&lt;/font&gt;更新模型参数`\mathbf{W}`、`\mathbf{B}`" style="rounded=0;whiteSpace=wrap;html=1;fontFamily=宋体;fontSize=13;container=0;" vertex="1" parent="1w3eNoOZPT37V3u_YCe4-22">
          <mxGeometry x="52.5" y="501" width="150.02" height="32" as="geometry" />
        </mxCell>
        <mxCell id="1w3eNoOZPT37V3u_YCe4-10" value="`i++`" style="rounded=0;whiteSpace=wrap;html=1;fontFamily=宋体;fontSize=13;container=0;" vertex="1" parent="1w3eNoOZPT37V3u_YCe4-22">
          <mxGeometry x="105.01999999999998" y="551" width="45" height="20" as="geometry" />
        </mxCell>
        <mxCell id="1w3eNoOZPT37V3u_YCe4-11" value="" style="edgeStyle=orthogonalEdgeStyle;rounded=0;orthogonalLoop=1;jettySize=auto;html=1;exitX=0.5;exitY=1;exitDx=0;exitDy=0;entryX=0.5;entryY=0;entryDx=0;entryDy=0;fontFamily=宋体;fontSize=13;" edge="1" parent="1w3eNoOZPT37V3u_YCe4-22" source="1w3eNoOZPT37V3u_YCe4-7" target="1w3eNoOZPT37V3u_YCe4-5">
          <mxGeometry relative="1" as="geometry">
            <mxPoint x="137.51" y="73" as="sourcePoint" />
            <mxPoint x="137.51" y="103" as="targetPoint" />
          </mxGeometry>
        </mxCell>
        <mxCell id="1w3eNoOZPT37V3u_YCe4-12" value="" style="edgeStyle=orthogonalEdgeStyle;rounded=0;orthogonalLoop=1;jettySize=auto;html=1;exitX=0.5;exitY=1;exitDx=0;exitDy=0;entryX=0.5;entryY=0;entryDx=0;entryDy=0;fontFamily=宋体;fontSize=13;" edge="1" parent="1w3eNoOZPT37V3u_YCe4-22" source="1w3eNoOZPT37V3u_YCe4-5" target="1w3eNoOZPT37V3u_YCe4-6">
          <mxGeometry relative="1" as="geometry">
            <mxPoint x="147.51" y="213" as="sourcePoint" />
            <mxPoint x="127.50999999999999" y="233" as="targetPoint" />
          </mxGeometry>
        </mxCell>
        <mxCell id="1w3eNoOZPT37V3u_YCe4-13" value="" style="edgeStyle=orthogonalEdgeStyle;rounded=0;orthogonalLoop=1;jettySize=auto;html=1;exitX=0.5;exitY=1;exitDx=0;exitDy=0;entryX=0.5;entryY=0;entryDx=0;entryDy=0;fontFamily=宋体;fontSize=13;" edge="1" parent="1w3eNoOZPT37V3u_YCe4-22" source="1w3eNoOZPT37V3u_YCe4-6" target="1w3eNoOZPT37V3u_YCe4-8">
          <mxGeometry relative="1" as="geometry">
            <mxPoint x="127.42999999999995" y="263" as="sourcePoint" />
            <mxPoint x="127.42999999999995" y="293" as="targetPoint" />
          </mxGeometry>
        </mxCell>
        <mxCell id="1w3eNoOZPT37V3u_YCe4-14" value="" style="edgeStyle=orthogonalEdgeStyle;rounded=0;orthogonalLoop=1;jettySize=auto;html=1;exitX=0.5;exitY=1;exitDx=0;exitDy=0;entryX=0.5;entryY=0;entryDx=0;entryDy=0;fontFamily=宋体;fontSize=13;" edge="1" parent="1w3eNoOZPT37V3u_YCe4-22" source="1w3eNoOZPT37V3u_YCe4-8" target="1w3eNoOZPT37V3u_YCe4-19">
          <mxGeometry relative="1" as="geometry">
            <mxPoint x="127.42999999999995" y="353" as="sourcePoint" />
            <mxPoint x="128.51" y="373" as="targetPoint" />
          </mxGeometry>
        </mxCell>
        <mxCell id="1w3eNoOZPT37V3u_YCe4-15" value="" style="edgeStyle=orthogonalEdgeStyle;rounded=0;orthogonalLoop=1;jettySize=auto;html=1;exitX=0.5;exitY=1;exitDx=0;exitDy=0;entryX=0.5;entryY=0;entryDx=0;entryDy=0;fontFamily=宋体;fontSize=13;" edge="1" parent="1w3eNoOZPT37V3u_YCe4-22" source="1w3eNoOZPT37V3u_YCe4-9" target="1w3eNoOZPT37V3u_YCe4-10">
          <mxGeometry relative="1" as="geometry">
            <mxPoint x="127.38999999999999" y="553" as="sourcePoint" />
            <mxPoint x="127.38999999999999" y="583" as="targetPoint" />
          </mxGeometry>
        </mxCell>
        <mxCell id="1w3eNoOZPT37V3u_YCe4-16" value="" style="endArrow=classic;html=1;rounded=0;exitX=0;exitY=0.5;exitDx=0;exitDy=0;entryX=0;entryY=0.5;entryDx=0;entryDy=0;fontFamily=宋体;fontSize=13;" edge="1" parent="1w3eNoOZPT37V3u_YCe4-22" source="1w3eNoOZPT37V3u_YCe4-5" target="1w3eNoOZPT37V3u_YCe4-18">
          <mxGeometry width="50" height="50" relative="1" as="geometry">
            <mxPoint x="71.50999999999999" y="178" as="sourcePoint" />
            <mxPoint x="99.00999999999999" y="453" as="targetPoint" />
            <Array as="points">
              <mxPoint x="7" y="172" />
              <mxPoint x="8.509999999999991" y="583" />
            </Array>
          </mxGeometry>
        </mxCell>
        <mxCell id="1w3eNoOZPT37V3u_YCe4-17" value="" style="endArrow=classic;html=1;rounded=0;exitX=1;exitY=0.5;exitDx=0;exitDy=0;entryX=1;entryY=0.5;entryDx=0;entryDy=0;fontFamily=宋体;fontSize=13;" edge="1" parent="1w3eNoOZPT37V3u_YCe4-22" source="1w3eNoOZPT37V3u_YCe4-10" target="1w3eNoOZPT37V3u_YCe4-5">
          <mxGeometry width="50" height="50" relative="1" as="geometry">
            <mxPoint x="335.51" y="443" as="sourcePoint" />
            <mxPoint x="132.51" y="133" as="targetPoint" />
            <Array as="points">
              <mxPoint x="249" y="561" />
              <mxPoint x="249" y="172" />
            </Array>
          </mxGeometry>
        </mxCell>
        <mxCell id="1w3eNoOZPT37V3u_YCe4-18" value="&lt;font style=&quot;font-size: 13px;&quot;&gt;&lt;b&gt;输出&lt;/b&gt;：最优参数矩阵`\mathbf{W}`、`\mathbf{B}`&lt;/font&gt;" style="rounded=1;whiteSpace=wrap;html=1;fontSize=13;fontFamily=宋体;container=0;" vertex="1" parent="1w3eNoOZPT37V3u_YCe4-22">
          <mxGeometry x="62.51999999999998" y="573" width="160.48" height="20" as="geometry" />
        </mxCell>
        <mxCell id="1w3eNoOZPT37V3u_YCe4-19" value="&lt;b&gt;数据同步&lt;/b&gt;：`\mathbf{g}\left(\mathbf{w}^{(i)&lt;br style=&quot;border-color: var(--border-color); font-size: 13px;&quot;&gt;} \right)=&lt;br style=&quot;font-size: 13px;&quot;&gt;\sum_{k=1}^{N}\mathbf{g}\left(\mathbf{w}^{k(i)&lt;br style=&quot;border-color: var(--border-color); font-size: 13px;&quot;&gt;} \right)&lt;br style=&quot;font-size: 13px;&quot;&gt;``\mathbf{g}\left(\mathbf{b}^{(i)&lt;br style=&quot;border-color: var(--border-color); font-size: 13px;&quot;&gt;} \right)=&lt;br style=&quot;border-color: var(--border-color); font-size: 13px;&quot;&gt;\sum_{k=1}^{N}\mathbf{g}\left(\mathbf{b}^{k(i)&lt;br style=&quot;border-color: var(--border-color); font-size: 13px;&quot;&gt;} \right)&lt;br style=&quot;border-color: var(--border-color); font-size: 13px;&quot;&gt;`" style="rounded=0;whiteSpace=wrap;html=1;fontFamily=宋体;fontColor=#FF0000;fontSize=13;container=0;" vertex="1" parent="1w3eNoOZPT37V3u_YCe4-22">
          <mxGeometry x="24.129999999999995" y="402" width="206.75" height="80" as="geometry" />
        </mxCell>
        <mxCell id="1w3eNoOZPT37V3u_YCe4-20" value="" style="edgeStyle=orthogonalEdgeStyle;rounded=0;orthogonalLoop=1;jettySize=auto;html=1;exitX=0.5;exitY=1;exitDx=0;exitDy=0;entryX=0.5;entryY=0;entryDx=0;entryDy=0;fontFamily=宋体;fontSize=13;" edge="1" parent="1w3eNoOZPT37V3u_YCe4-22" source="1w3eNoOZPT37V3u_YCe4-19" target="1w3eNoOZPT37V3u_YCe4-9">
          <mxGeometry relative="1" as="geometry">
            <mxPoint x="127.5150000000001" y="473" as="sourcePoint" />
            <mxPoint x="137.51" y="453" as="targetPoint" />
          </mxGeometry>
        </mxCell>
        <mxCell id="1w3eNoOZPT37V3u_YCe4-21" value="&lt;font face=&quot;Times New Roman&quot; style=&quot;font-size: 18px;&quot;&gt;Worker&lt;/font&gt;" style="text;html=1;strokeColor=none;fillColor=none;align=center;verticalAlign=middle;whiteSpace=wrap;rounded=0;fontColor=#FF33FF;fontFamily=宋体;fontSize=18;fontStyle=1;container=0;" vertex="1" parent="1w3eNoOZPT37V3u_YCe4-22">
          <mxGeometry x="95.25" y="5" width="64.5" height="19" as="geometry" />
        </mxCell>
      </root>
    </mxGraphModel>
  </diagram>
</mxfile>
